<svg width="512" height="512" viewBox="0 0 512 512" fill="none" xmlns="http://www.w3.org/2000/svg">
<defs>
<linearGradient id="bgG2" x1="0" y1="0" x2="512" y2="512" gradientUnits="userSpaceOnUse"><stop stop-color="#0B1120"/><stop offset="1" stop-color="#172554"/></linearGradient>
</defs>
<rect width="512" height="512" rx="120" fill="url(#bgG2)"/>
<g transform="rotate(45 256 256)">
<path d="M80 124 L432 124" stroke="#A9BCE0" stroke-opacity="0.9" stroke-width="10" stroke-linecap="round"/>
<path d="M228 156 C168 136 108 118 78 112 L72 132 C116 146 176 172 228 206 Z" fill="#F1F5F9"/>
<path d="M284 156 C344 136 404 118 434 112 L440 132 C396 146 336 172 284 206 Z" fill="#F1F5F9"/>
<rect x="54" y="94" width="32" height="11" rx="5.5" fill="#F1F5F9" transform="rotate(-12 70 99.5)"/>
<rect x="50" y="109" width="32" height="11" rx="5.5" fill="#F1F5F9" transform="rotate(-12 66 114.5)"/>
<rect x="46" y="124" width="32" height="11" rx="5.5" fill="#F1F5F9" transform="rotate(-12 62 129.5)"/>
<rect x="426" y="94" width="32" height="11" rx="5.5" fill="#F1F5F9" transform="rotate(12 442 99.5)"/>
<rect x="430" y="109" width="32" height="11" rx="5.5" fill="#F1F5F9" transform="rotate(12 446 114.5)"/>
<rect x="434" y="124" width="32" height="11" rx="5.5" fill="#F1F5F9" transform="rotate(12 450 129.5)"/>
<path d="M224 98 L288 98 L288 404 Q288 426 265 426 L247 426 Q224 426 224 404 Z" fill="#F1F5F9"/>
<path d="M238 172 L238 338" stroke="#12203C" stroke-width="8" stroke-linecap="round"/>
<path d="M274 172 L274 338" stroke="#12203C" stroke-width="8" stroke-linecap="round"/>
<rect x="212" y="248" width="12" height="32" rx="5" fill="#12203C"/>
<rect x="288" y="248" width="12" height="32" rx="5" fill="#12203C"/>
<path d="M262 334 L190 358 L190 396 L262 420 Z" fill="#F1F5F9"/>
<path d="M250 334 L322 358 L322 396 L250 420 Z" fill="#F1F5F9"/>
<path d="M256 402 L256 118" stroke="#F1F5F9" stroke-width="13" stroke-linecap="round"/>
<path d="M256 38 L302 124 L275 107 L256 124 L237 107 L210 124 Z" fill="#F1F5F9"/>
</g>
</svg>
